<?xml version="1.0" standalone="no"?>
<!DOCTYPE svg PUBLIC "-//W3C//DTD SVG 20010904//EN"
 "http://www.w3.org/TR/2001/REC-SVG-20010904/DTD/svg10.dtd">
<svg version="1.0" xmlns="http://www.w3.org/2000/svg"
 width="536.000000pt" height="426.000000pt" viewBox="0 0 536.000000 426.000000"
 preserveAspectRatio="xMidYMid meet" class="fire">


  <style>
    @keyframes fireAnimation {
      0% {
        fill: #b80000;
      }

      50% {
        fill: #ff0000;
      }

      100% {
        fill: #b80000;
      }
    }

    .fire * {
      animation: fireAnimation 2s infinite;
    }
  </style>


<g transform="translate(0.000000,426.000000) scale(0.100000,-0.100000)"
fill="#000000" stroke="none">
<path d="M2931 4085 c-104 -145 -137 -399 -91 -696 22 -145 49 -259 60 -259
14 0 66 93 91 161 35 93 34 265 -1 399 -21 83 -24 117 -25 268 0 94 0 172 -1
172 0 0 -15 -20 -33 -45z"/>
<path d="M2545 3978 c-139 -99 -215 -248 -251 -493 -32 -213 -1 -624 66 -890
44 -175 36 -325 -24 -413 -57 -86 -127 -112 -203 -76 -44 22 -78 67 -104 140
-22 63 -22 42 -3 489 9 217 -15 334 -89 439 -25 35 -109 76 -158 76 l-36 0 26
-52 c24 -49 26 -62 25 -183 -1 -228 -76 -502 -257 -936 -98 -234 -132 -351
-147 -508 -20 -200 29 -466 110 -599 33 -54 55 -58 183 -38 157 25 152 23 173
68 47 104 174 126 254 43 41 -43 67 -45 76 -7 11 42 44 83 80 98 68 28 131 11
177 -47 29 -37 51 -34 60 8 8 38 51 80 97 94 48 14 102 -9 133 -57 21 -32 24
-34 70 -28 69 9 64 -21 -6 -35 -23 -5 -36 -18 -56 -55 -30 -54 -60 -75 -111
-76 -38 0 -97 31 -106 55 -4 8 -17 15 -29 15 -18 0 -25 -7 -30 -30 -14 -63
-74 -110 -142 -110 -41 0 -79 20 -111 60 -17 20 -24 23 -39 14 -10 -6 -21 -26
-24 -43 -9 -46 -62 -96 -115 -111 -72 -20 -142 16 -190 98 -5 8 -158 -39 -175
-54 -12 -11 -19 -30 -19 -54 0 -34 8 -45 78 -112 159 -152 317 -234 577 -300
104 -26 144 -31 300 -35 198 -6 282 3 408 43 183 57 306 132 437 263 133 134
230 297 300 499 35 103 34 142 -3 167 -12 8 -77 25 -145 38 l-122 24 -21 -34
c-39 -63 -135 -91 -198 -58 -38 19 -81 71 -88 106 -10 52 -29 56 -68 16 -81
-83 -199 -60 -241 48 -17 46 -44 60 -61 32 -20 -33 -67 -57 -109 -57 -34 0
-51 7 -78 30 -19 17 -37 44 -41 59 -5 24 -14 31 -49 40 -24 6 -46 18 -50 26
-5 13 3 14 48 9 48 -6 55 -4 60 13 11 36 53 65 99 70 73 9 114 -23 141 -109 8
-28 34 -21 67 17 73 83 206 61 239 -40 20 -61 35 -64 86 -14 44 43 46 44 114
44 62 0 72 -3 99 -29 16 -15 35 -42 42 -60 7 -17 14 -33 15 -34 5 -7 219 -42
255 -42 25 0 42 7 60 26 23 24 24 33 28 177 5 227 -21 381 -94 563 -36 88 -49
114 -169 331 -146 263 -213 577 -172 809 8 50 19 99 22 109 6 16 3 17 -21 11
-46 -12 -115 -65 -146 -114 -75 -119 -112 -325 -107 -607 2 -166 1 -184 -19
-227 -34 -74 -91 -95 -162 -58 -86 43 -179 186 -239 365 -35 105 -94 387 -118
560 -19 143 -30 516 -16 598 10 64 5 69 -43 35z"/>
</g>
</svg>
