<?xml version="1.0" standalone="no"?>
<!DOCTYPE svg PUBLIC "-//W3C//DTD SVG 20010904//EN"
 "http://www.w3.org/TR/2001/REC-SVG-20010904/DTD/svg10.dtd">

<svg version="1.0" xmlns="http://www.w3.org/2000/svg"
 width="678.000000pt" height="368.000000pt" viewBox="0 0 678.000000 368.000000"
 preserveAspectRatio="xMidYMid meet" class="fire">

  <style>
    @keyframes fireAnimation {
      0% {
        fill: #b80000;
      }

      50% {
        fill: #ff0000;
      }

      100% {
        fill: #b80000;
      }
    }

    .fire * {
      animation: fireAnimation 10s infinite;
    }
  </style>

<g transform="translate(0.000000,368.000000) scale(0.100000,-0.100000)"
fill="#000000" stroke="none">
<path d="M1076 2798 c-46 -71 -51 -97 -50 -268 1 -162 16 -260 39 -262 18 -1
57 94 62 152 4 38 -2 95 -17 170 -16 80 -21 130 -16 172 3 32 4 58 1 58 -2 0
-11 -10 -19 -22z"/>
<path d="M844 2730 c-105 -67 -157 -272 -134 -524 6 -67 17 -152 26 -191 31
-145 36 -180 29 -224 -17 -116 -96 -172 -163 -117 -45 39 -57 84 -52 201 10
225 6 296 -22 357 -26 57 -64 88 -106 88 -19 0 -19 -2 -4 -52 31 -106 -9 -284
-133 -598 -40 -102 -79 -213 -85 -248 -26 -132 5 -349 60 -422 18 -24 18 -24
102 -12 45 7 85 17 87 23 9 28 49 60 82 65 28 5 41 1 66 -20 35 -30 53 -33 53
-11 0 9 11 27 25 40 32 32 75 32 113 0 35 -29 42 -31 42 -10 0 27 38 55 75 55
25 0 41 -7 57 -25 15 -18 28 -23 45 -19 13 4 23 2 23 -5 0 -6 -11 -13 -25 -17
-14 -3 -25 -10 -25 -16 0 -5 -11 -20 -25 -33 -30 -31 -71 -32 -101 -4 -23 22
-44 19 -44 -6 0 -22 -50 -55 -85 -55 -19 0 -39 8 -50 20 -24 26 -34 25 -45 -5
-26 -68 -102 -88 -155 -39 -24 22 -35 25 -67 21 -89 -12 -91 -54 -5 -132 126
-114 312 -178 522 -179 132 -1 197 15 313 73 124 63 240 201 302 362 44 113
37 126 -77 148 -60 11 -62 11 -86 -13 -51 -51 -117 -41 -149 22 -23 47 -24 47
-58 18 -17 -14 -42 -26 -54 -26 -27 0 -76 35 -76 55 0 22 -20 28 -38 12 -43
-38 -101 -28 -127 23 -9 18 -23 30 -35 30 -11 0 -20 5 -20 10 0 6 11 10 25 10
13 0 35 11 49 25 41 41 93 30 122 -26 l15 -31 24 26 c23 25 39 30 80 26 24 -2
65 -38 65 -57 0 -19 18 -16 47 7 37 29 97 27 128 -5 14 -13 25 -31 25 -38 0
-11 23 -18 81 -27 114 -16 114 -16 113 148 -1 150 -29 258 -96 382 -86 156
-116 222 -133 287 -22 86 -30 222 -17 291 7 41 7 52 -4 52 -25 0 -81 -60 -103
-109 -25 -60 -45 -220 -38 -314 6 -85 -6 -132 -38 -153 -134 -88 -285 309
-288 759 -1 81 -2 147 -2 147 0 0 -14 -9 -31 -20z"/>
<path d="M2000 1955 l0 -195 95 0 c112 0 157 15 179 59 20 38 20 95 1 125 -12
18 -13 29 -4 55 17 48 -3 106 -44 131 -26 16 -51 20 -129 20 l-98 0 0 -195z
m191 99 c23 -28 -1 -49 -57 -49 -50 0 -64 14 -50 51 8 20 89 19 107 -2z m14
-169 c0 -30 0 -30 -60 -30 -50 0 -60 3 -63 18 -8 39 5 48 65 45 57 -3 58 -3
58 -33z"/>
<path d="M2550 2128 c-68 -35 -103 -86 -108 -158 -8 -105 49 -185 151 -211
162 -40 293 139 214 292 -17 34 -35 50 -77 72 -66 33 -120 35 -180 5z m148
-84 c25 -17 52 -64 52 -89 0 -63 -72 -122 -134 -111 -35 7 -80 48 -91 84 -9
32 12 88 42 112 31 24 99 27 131 4z"/>
<path d="M3112 2139 c-71 -21 -132 -112 -132 -194 1 -73 73 -164 147 -184 47
-13 59 -13 106 0 37 10 117 72 117 90 0 5 -15 16 -33 25 -32 15 -35 15 -72
-10 -43 -29 -73 -33 -114 -12 -87 46 -78 163 15 202 38 16 74 7 111 -28 l22
-20 35 22 c31 18 34 24 26 41 -31 57 -150 92 -228 68z"/>
<path d="M3548 1963 c-38 -104 -68 -192 -68 -196 0 -4 20 -7 44 -7 42 0 45 2
56 35 l12 35 73 0 73 0 12 -35 c11 -33 14 -35 56 -35 24 0 44 3 44 8 0 4 -31
90 -68 192 l-67 185 -50 3 -50 3 -67 -188z m138 12 c20 -49 18 -55 -21 -55
-19 0 -35 5 -35 10 0 16 28 80 35 80 3 0 13 -16 21 -35z"/>
<path d="M4009 2008 c0 -79 -1 -165 -2 -193 l-2 -50 87 -3 c49 -1 106 2 128 8
46 12 104 59 126 102 35 67 7 194 -52 235 -48 33 -92 43 -190 43 l-94 0 -1
-142z m217 43 c63 -38 70 -128 13 -175 -25 -22 -41 -26 -90 -26 l-59 0 0 103
c0 57 3 107 7 110 14 14 99 6 129 -12z"/>
<path d="M4532 1958 l3 -193 43 -3 42 -3 0 195 0 196 -45 0 -45 0 2 -192z"/>
<path d="M4820 1955 l0 -195 40 0 40 0 0 104 c0 58 4 107 9 110 5 3 40 -44 77
-104 68 -109 70 -110 104 -108 l35 3 3 193 2 192 -44 0 -45 0 -3 -97 -3 -98
-30 42 c-16 23 -46 67 -64 97 -34 54 -36 56 -78 56 l-43 0 0 -195z"/>
<path d="M5320 1954 l0 -195 43 3 42 3 3 73 3 72 79 0 80 0 0 -75 0 -75 45 0
45 0 0 195 0 195 -45 0 -45 0 0 -75 0 -75 -80 0 -80 0 0 75 0 75 -45 0 -45 0
0 -196z"/>
<path d="M5886 1969 c-36 -99 -66 -187 -66 -195 0 -10 12 -14 41 -14 36 0 41
3 55 35 l14 35 74 0 73 0 9 -32 c9 -31 13 -33 58 -36 43 -3 48 -1 42 15 -4 10
-23 61 -42 113 -20 52 -49 132 -66 178 l-31 82 -47 0 -47 0 -67 -181z m138 1
c9 -22 16 -43 16 -45 0 -3 -16 -5 -35 -5 -38 0 -42 8 -24 59 14 41 24 39 43
-9z"/>
<path d="M6378 2133 c-32 -20 -48 -52 -48 -96 0 -49 25 -76 106 -113 55 -25
74 -39 74 -53 0 -36 -63 -42 -104 -10 -25 19 -30 20 -53 8 -37 -20 -39 -37 -7
-70 84 -88 254 -41 254 70 0 54 -37 94 -115 124 -45 17 -61 29 -63 45 -5 32
42 41 71 14 l23 -21 33 20 c40 24 38 45 -8 76 -42 28 -122 31 -163 6z"/>
<path d="M2192 1568 c-2 -36 2 -50 16 -57 33 -17 52 5 50 57 -1 41 -2 42 -5
12 -9 -72 -48 -73 -56 -2 -3 33 -4 32 -5 -10z"/>
<path d="M2352 1560 c0 -30 3 -45 5 -32 5 24 13 28 30 11 8 -8 13 -8 17 0 11
18 26 13 26 -9 0 -11 5 -20 11 -20 8 0 9 11 5 31 -3 17 -6 41 -6 53 -1 21 -1
21 -19 -1 -11 -13 -22 -23 -26 -23 -4 0 -15 10 -26 23 l-18 22 1 -55z"/>
<path d="M3347 1604 c-11 -11 -8 -94 3 -94 6 0 10 12 10 28 l1 27 22 -27 c13
-16 26 -28 30 -28 4 0 7 20 7 45 0 25 -4 45 -10 45 -5 0 -10 -10 -10 -22 -1
-22 -1 -22 -23 5 -13 15 -26 24 -30 21z"/>
<path d="M3507 1604 c-11 -11 -9 -94 3 -94 6 0 10 7 10 15 0 9 9 15 25 15 16
0 25 -6 25 -15 0 -8 5 -15 10 -15 6 0 10 23 10 52 0 28 -3 48 -7 44 -8 -7 -9
-11 -12 -37 -2 -20 -45 -4 -51 19 -3 13 -8 20 -13 16z"/>
<path d="M4512 1568 c-2 -36 2 -50 16 -57 33 -17 52 5 50 57 -1 41 -2 42 -5
12 -9 -72 -48 -73 -56 -2 -3 33 -4 32 -5 -10z"/>
<path d="M4983 1593 c-3 -10 -11 -31 -18 -48 l-12 -30 44 0 c23 0 43 0 43 1 0
0 -7 21 -16 47 -17 49 -30 59 -41 30z m27 -37 c0 -3 -4 -8 -10 -11 -5 -3 -10
-1 -10 4 0 6 5 11 10 11 6 0 10 -2 10 -4z"/>
<path d="M5387 1603 c-11 -10 -8 -93 3 -93 6 0 10 23 10 50 0 51 -1 55 -13 43z"/>
<path d="M5487 1604 c-11 -11 -8 -94 3 -94 6 0 10 9 10 20 0 22 10 26 27 9 8
-8 13 -8 17 0 11 18 24 13 29 -11 2 -13 5 1 6 30 1 52 -12 70 -24 32 -8 -26
-29 -26 -46 1 -8 11 -17 17 -22 13z"/>
<path d="M5808 1604 c-3 -5 -2 -29 2 -54 4 -25 8 -35 9 -22 1 27 17 29 33 2
20 -32 28 -24 28 31 0 31 -4 48 -10 44 -6 -4 -8 -11 -5 -16 4 -5 3 -14 -1 -20
-4 -7 -15 -1 -29 17 -12 15 -24 23 -27 18z"/>
<path d="M6149 1563 l-16 -48 43 0 42 0 -17 44 c-9 24 -21 46 -27 48 -5 2 -17
-18 -25 -44z m31 -9 c0 -8 -5 -12 -10 -9 -6 4 -8 11 -5 16 9 14 15 11 15 -7z"/>
<path d="M2632 1588 c-34 -34 14 -102 56 -79 21 11 34 35 25 45 -4 3 -15 6
-26 6 -13 0 -17 -5 -14 -15 9 -21 -9 -28 -27 -10 -22 22 -9 45 25 45 16 0 29
5 29 10 0 14 -54 12 -68 -2z"/>
<path d="M2802 1588 c-35 -35 14 -102 57 -79 45 25 33 91 -17 91 -16 0 -33 -5
-40 -12z m66 -32 c4 -17 -12 -35 -30 -36 -15 0 -37 32 -31 46 8 22 57 14 61
-10z"/>
<path d="M2967 1593 c-13 -13 -7 -32 13 -38 11 -3 20 -13 20 -21 0 -11 -6 -13
-22 -8 -20 6 -21 5 -9 -10 17 -20 25 -20 47 1 15 16 15 18 -12 40 -28 22 -28
23 -6 23 13 0 20 4 17 10 -7 11 -38 13 -48 3z"/>
<path d="M3108 1588 c7 -7 12 -27 12 -45 0 -18 5 -33 10 -33 6 0 10 16 10 35
0 19 5 35 10 35 6 0 10 5 10 10 0 6 -14 10 -32 10 -25 0 -29 -3 -20 -12z"/>
<path d="M3240 1555 c0 -25 5 -45 10 -45 6 0 10 20 10 45 0 25 -4 45 -10 45
-5 0 -10 -20 -10 -45z"/>
<path d="M3682 1588 c-18 -18 -14 -53 8 -73 18 -17 21 -17 45 -1 42 27 28 86
-20 86 -12 0 -26 -5 -33 -12z m66 -30 c2 -9 -6 -22 -19 -28 -17 -10 -24 -9
-37 3 -8 9 -12 23 -8 32 8 22 60 16 64 -7z"/>
<path d="M3942 1553 c3 -46 4 -48 33 -46 29 2 55 25 55 49 0 22 -31 44 -61 44
-30 0 -30 -1 -27 -47z m66 0 c2 -14 -3 -23 -17 -28 -28 -9 -41 1 -41 31 0 22
4 25 28 22 19 -2 28 -9 30 -25z"/>
<path d="M4110 1550 c0 -43 3 -50 19 -50 11 0 23 5 26 10 3 6 -1 10 -9 10 -21
0 -20 16 2 25 15 6 14 8 -8 17 l-25 10 23 9 c29 11 28 19 -3 19 -23 0 -25 -3
-25 -50z"/>
<path d="M4346 1578 c-17 -24 -8 -51 23 -67 39 -22 82 44 49 77 -19 19 -55 14
-72 -10z m72 -20 c2 -9 -6 -22 -19 -28 -17 -10 -24 -9 -37 3 -8 9 -12 23 -8
32 8 22 60 16 64 -7z"/>
<path d="M4675 1580 c10 -11 15 -28 12 -40 -3 -11 -1 -23 4 -26 5 -3 9 9 9 27
0 19 7 37 18 45 15 12 13 13 -22 14 -38 0 -39 0 -21 -20z"/>
<path d="M4807 1594 c-11 -11 -8 -84 3 -84 6 0 10 7 10 15 0 8 5 15 10 15 6 0
13 -7 16 -15 11 -28 21 -15 20 28 -1 37 -4 42 -26 45 -14 2 -29 0 -33 -4z m48
-24 c-3 -5 -13 -10 -21 -10 -8 0 -14 5 -14 10 0 6 9 10 21 10 11 0 17 -4 14
-10z"/>
<path d="M5220 1550 c0 -54 6 -59 54 -40 20 7 26 17 26 38 0 36 -16 52 -52 52
-27 0 -28 -2 -28 -50z m67 14 c8 -20 -21 -49 -41 -41 -9 4 -16 18 -16 32 0 20
5 25 25 25 14 0 28 -7 32 -16z"/>
<path d="M5670 1550 c0 -47 2 -50 25 -50 14 0 25 5 25 10 0 6 -7 10 -15 10
-21 0 -19 16 3 25 15 6 14 8 -8 18 -25 10 -25 10 -2 14 30 6 28 23 -3 23 -23
0 -25 -3 -25 -50z"/>
<path d="M5976 1584 c-21 -21 -20 -40 4 -64 24 -24 30 -25 56 -4 18 15 18 15
-7 10 -17 -4 -31 0 -39 9 -19 23 -4 45 30 45 18 0 29 4 25 10 -9 15 -52 12
-69 -6z"/>
<path d="M6306 1584 c-21 -21 -20 -40 4 -64 24 -24 29 -24 58 -4 24 17 29 53
10 72 -17 17 -54 15 -72 -4z m68 -21 c7 -16 -16 -43 -35 -43 -14 0 -31 30 -25
45 8 21 52 19 60 -2z"/>
</g>
</svg>
